<?xml version="1.0" encoding="UTF-8"?>
<svg width="235px" height="46px" viewBox="0 0 235 46" version="1.1" xmlns="http://www.w3.org/2000/svg" xmlns:xlink="http://www.w3.org/1999/xlink">
    <!-- Generator: Sketch 52.5 (67469) - http://www.bohemiancoding.com/sketch -->
    <title>Group Copy 2</title>
    <desc>Created with Sketch.</desc>
    <g id="Privacy-Policy" stroke="none" stroke-width="1" fill="none" fill-rule="evenodd">
        <g transform="translate(-385.000000, -52.000000)" fill="#FF6B6B" id="Group-Copy-2">
            <g transform="translate(385.000000, 52.000000)">
                <path d="M83.548,35 C83.2026649,35 82.9375009,34.9198341 82.7525,34.7595 C82.5674991,34.5991659 82.4256672,34.3710015 82.327,34.075 L76.999,16.944 L76.925,16.574 C76.925,16.3519989 77.0113325,16.1608341 77.184,16.0005 C77.3566675,15.8401659 77.5539989,15.76 77.776,15.76 L81.587,15.76 C81.8830015,15.76 82.1296657,15.8401659 82.327,16.0005 C82.5243343,16.1608341 82.6476664,16.3396657 82.697,16.537 L85.805,27.119 L89.135,16.574 C89.1843336,16.3766657 89.3076657,16.1916675 89.505,16.019 C89.7023343,15.8463325 89.9613317,15.76 90.282,15.76 L92.724,15.76 C93.0446683,15.76 93.3036657,15.8463325 93.501,16.019 C93.6983343,16.1916675 93.8216664,16.3766657 93.871,16.574 L97.201,27.119 L100.309,16.537 C100.358334,16.3396657 100.481666,16.1608341 100.679,16.0005 C100.876334,15.8401659 101.122999,15.76 101.419,15.76 L105.23,15.76 C105.452001,15.76 105.649332,15.8401659 105.822,16.0005 C105.994668,16.1608341 106.081,16.3519989 106.081,16.574 L106.007,16.944 L100.679,34.075 C100.580333,34.3710015 100.438501,34.5991659 100.2535,34.7595 C100.068499,34.9198341 99.8033351,35 99.458,35 L96.128,35 C95.4866635,35 95.0796675,34.6916698 94.907,34.075 L91.503,23.937 L88.099,34.075 C87.9263325,34.6916698 87.5193365,35 86.878,35 L83.548,35 Z M111.171143,35 C110.924475,35 110.708644,34.9075009 110.523643,34.7225 C110.338642,34.5374991 110.246143,34.3216679 110.246143,34.075 L110.246143,9.655 C110.246143,9.38366531 110.338642,9.16166753 110.523643,8.989 C110.708644,8.81633247 110.924475,8.73 111.171143,8.73 L115.907143,8.73 C116.178478,8.73 116.400475,8.81633247 116.573143,8.989 C116.74581,9.16166753 116.832143,9.38366531 116.832143,9.655 L116.832143,17.906 C118.31215,16.2286583 120.260797,15.39 122.678143,15.39 C124.108817,15.39 125.385304,15.7106635 126.507643,16.352 C127.629982,16.9933365 128.511806,17.9429937 129.153143,19.201 C129.794479,20.4590063 130.115143,21.9759911 130.115143,23.752 L130.115143,34.075 C130.115143,34.3216679 130.02881,34.5374991 129.856143,34.7225 C129.683475,34.9075009 129.461478,35 129.190143,35 L124.417143,35 C124.170475,35 123.954644,34.9075009 123.769643,34.7225 C123.584642,34.5374991 123.492143,34.3216679 123.492143,34.075 L123.492143,23.974 C123.492143,22.8146609 123.214646,21.9205031 122.659643,21.2915 C122.10464,20.6624969 121.296815,20.348 120.236143,20.348 C119.175471,20.348 118.342979,20.6624969 117.738643,21.2915 C117.134306,21.9205031 116.832143,22.8146609 116.832143,23.974 L116.832143,34.075 C116.832143,34.3463347 116.74581,34.5683325 116.573143,34.741 C116.400475,34.9136675 116.178478,35 115.907143,35 L111.171143,35 Z M144.455286,35.37 C141.396604,35.37 139.040961,34.6423406 137.388286,33.187 C135.735611,31.7316594 134.835286,29.6843465 134.687286,27.045 C134.662619,26.7243317 134.650286,26.1693373 134.650286,25.38 C134.650286,24.5906627 134.662619,24.0356683 134.687286,23.715 C134.835286,21.1003203 135.760277,19.059174 137.462286,17.5915 C139.164294,16.123826 141.495271,15.39 144.455286,15.39 C147.439967,15.39 149.783277,16.123826 151.485286,17.5915 C153.187294,19.059174 154.112285,21.1003203 154.260286,23.715 C154.284952,24.0356683 154.297286,24.5906627 154.297286,25.38 C154.297286,26.1693373 154.284952,26.7243317 154.260286,27.045 C154.112285,29.6843465 153.211961,31.7316594 151.559286,33.187 C149.906611,34.6423406 147.538634,35.37 144.455286,35.37 Z M144.455286,30.856 C145.540624,30.856 146.342283,30.5291699 146.860286,29.8755 C147.378288,29.2218301 147.674285,28.2166735 147.748286,26.86 C147.772952,26.6133321 147.785286,26.1200037 147.785286,25.38 C147.785286,24.6399963 147.772952,24.1466679 147.748286,23.9 C147.674285,22.5679933 147.372122,21.5690033 146.841786,20.903 C146.31145,20.2369967 145.515958,19.904 144.455286,19.904 C142.407942,19.904 141.32262,21.2359867 141.199286,23.9 L141.162286,25.38 L141.199286,26.86 C141.248619,28.2166735 141.53845,29.2218301 142.068786,29.8755 C142.599122,30.5291699 143.394614,30.856 144.455286,30.856 Z M159.942429,35 C159.671094,35 159.449096,34.9136675 159.276429,34.741 C159.103761,34.5683325 159.017429,34.3463347 159.017429,34.075 L159.017429,16.685 C159.017429,16.4136653 159.103761,16.1916675 159.276429,16.019 C159.449096,15.8463325 159.671094,15.76 159.942429,15.76 L164.197429,15.76 C164.468763,15.76 164.696928,15.8463325 164.881929,16.019 C165.066929,16.1916675 165.159429,16.4136653 165.159429,16.685 L165.159429,18.091 C165.825432,17.2769959 166.68259,16.6233358 167.730929,16.13 C168.779267,15.6366642 169.969422,15.39 171.301429,15.39 C173.472106,15.39 175.235755,16.123826 176.592429,17.5915 C177.949102,19.059174 178.627429,21.1126535 178.627429,23.752 L178.627429,34.075 C178.627429,34.3216679 178.541096,34.5374991 178.368429,34.7225 C178.195761,34.9075009 177.973763,35 177.702429,35 L173.040429,35 C172.793761,35 172.577929,34.9075009 172.392929,34.7225 C172.207928,34.5374991 172.115429,34.3216679 172.115429,34.075 L172.115429,23.974 C172.115429,22.8146609 171.831765,21.9205031 171.264429,21.2915 C170.697092,20.6624969 169.883101,20.348 168.822429,20.348 C167.786423,20.348 166.972432,20.6624969 166.380429,21.2915 C165.788426,21.9205031 165.492429,22.8146609 165.492429,23.974 L165.492429,34.075 C165.492429,34.3216679 165.406096,34.5374991 165.233429,34.7225 C165.060761,34.9075009 164.838763,35 164.567429,35 L159.942429,35 Z M192.745571,35.37 C189.785557,35.37 187.45458,34.5683413 185.752571,32.965 C184.050563,31.3616587 183.162572,29.030682 183.088571,25.972 L183.088571,24.677 C183.187239,21.7663188 184.09373,19.4908415 185.808071,17.8505 C187.522413,16.2101585 189.822557,15.39 192.708571,15.39 C194.805249,15.39 196.575064,15.8154957 198.018071,16.6665 C199.461079,17.5175043 200.546401,18.6829926 201.274071,20.163 C202.001742,21.6430074 202.365571,23.3449904 202.365571,25.269 L202.365571,26.157 C202.365571,26.4036679 202.279239,26.6194991 202.106571,26.8045 C201.933904,26.9895009 201.711906,27.082 201.440571,27.082 L189.600571,27.082 L189.600571,27.341 C189.649905,28.5003391 189.933569,29.4376631 190.451571,30.153 C190.969574,30.8683369 191.7219,31.226 192.708571,31.226 C193.325241,31.226 193.830903,31.0965013 194.225571,30.8375 C194.62024,30.5784987 194.977903,30.2640018 195.298571,29.894 C195.520573,29.6226653 195.699404,29.456167 195.835071,29.3945 C195.970739,29.332833 196.18657,29.302 196.482571,29.302 L201.070571,29.302 C201.292573,29.302 201.483737,29.3698327 201.644071,29.5055 C201.804406,29.6411673 201.884571,29.8199989 201.884571,30.042 C201.884571,30.6833365 201.520742,31.4233291 200.793071,32.262 C200.065401,33.1006709 199.010912,33.8283303 197.629571,34.445 C196.248231,35.0616698 194.620247,35.37 192.745571,35.37 Z M195.853571,23.419 L195.853571,23.345 C195.853571,22.1363273 195.576074,21.1805035 195.021071,20.4775 C194.466069,19.7744965 193.695243,19.423 192.708571,19.423 C191.746567,19.423 190.988074,19.7744965 190.433071,20.4775 C189.878069,21.1805035 189.600571,22.1363273 189.600571,23.345 L189.600571,23.419 L195.853571,23.419 Z M211.673714,35 C211.328379,35 211.063215,34.9198341 210.878214,34.7595 C210.693213,34.5991659 210.551381,34.3710015 210.452714,34.075 L205.124714,16.944 L205.050714,16.574 C205.050714,16.3519989 205.137047,16.1608341 205.309714,16.0005 C205.482382,15.8401659 205.679713,15.76 205.901714,15.76 L209.712714,15.76 C210.008716,15.76 210.25538,15.8401659 210.452714,16.0005 C210.650049,16.1608341 210.773381,16.3396657 210.822714,16.537 L213.930714,27.119 L217.260714,16.574 C217.310048,16.3766657 217.43338,16.1916675 217.630714,16.019 C217.828049,15.8463325 218.087046,15.76 218.407714,15.76 L220.849714,15.76 C221.170383,15.76 221.42938,15.8463325 221.626714,16.019 C221.824049,16.1916675 221.947381,16.3766657 221.996714,16.574 L225.326714,27.119 L228.434714,16.537 C228.484048,16.3396657 228.60738,16.1608341 228.804714,16.0005 C229.002049,15.8401659 229.248713,15.76 229.544714,15.76 L233.355714,15.76 C233.577715,15.76 233.775047,15.8401659 233.947714,16.0005 C234.120382,16.1608341 234.206714,16.3519989 234.206714,16.574 L234.132714,16.944 L228.804714,34.075 C228.706047,34.3710015 228.564215,34.5991659 228.379214,34.7595 C228.194213,34.9198341 227.929049,35 227.583714,35 L224.253714,35 C223.612378,35 223.205382,34.6916698 223.032714,34.075 L219.628714,23.937 L216.224714,34.075 C216.052047,34.6916698 215.645051,35 215.003714,35 L211.673714,35 Z" id="whonew"></path>
                <g id="Logo_Line">
                    <g id="Group">
                        <path d="M20.3119581,38.4913833 L21.5214644,39.1405172 C24.7938825,40.8968021 28.5437456,41.840868 32.4622582,41.840868 C36.3931435,41.840868 40.1542336,40.8908146 43.4336626,39.1240574 L44.6453267,38.4712864 L56.9413964,40.4669756 L51.5795217,31.4333226 L52.3861751,29.4848501 C53.238669,27.42565 53.6790608,25.2420966 53.6790608,23 C53.6790608,12.7038401 44.2751599,4.15913201 32.4622582,4.15913201 C20.6493566,4.15913201 11.2454557,12.7038401 11.2454557,23 C11.2454557,25.2662844 11.6954137,27.4727619 12.5660091,29.5512921 L13.3849124,31.506408 L8.05860356,40.4801397 L20.3119581,38.4913833 Z M32.4622582,46 C27.7695859,46 23.3751637,44.8397094 19.6075202,42.8176403 L0,46 L8.79684857,31.1791247 C7.73241912,28.6378195 7.14954786,25.8807591 7.14954786,23 C7.14954786,10.2974508 18.4824343,0 32.4622582,0 C46.4420821,0 57.7749686,10.2974508 57.7749686,23 C57.7749686,25.8496237 57.2046287,28.5782082 56.1620122,31.0966496 L65,45.9868359 L45.3533029,42.7981177 C41.5775957,44.8322394 37.1700121,46 32.4622582,46 Z" id="Combined-Shape" fill-rule="nonzero"></path>
                        <ellipse id="Oval-2" cx="25" cy="19.5" rx="4" ry="6.5"></ellipse>
                        <ellipse id="Oval-2-Copy" cx="40" cy="19.5" rx="4" ry="6.5"></ellipse>
                    </g>
                </g>
            </g>
        </g>
    </g>
</svg>